<svg xmlns="http://www.w3.org/2000/svg" viewBox="0 0 512 512" role="img" aria-labelledby="title desc">
  <title id="title">TripTrace icon</title>
  <desc id="desc">A teal map pin with an orange travel route.</desc>
  <defs>
    <linearGradient id="bg" x1="64" y1="40" x2="448" y2="472" gradientUnits="userSpaceOnUse">
      <stop offset="0" stop-color="#0f172a"/>
      <stop offset="1" stop-color="#111827"/>
    </linearGradient>
    <linearGradient id="pin" x1="128" y1="72" x2="386" y2="430" gradientUnits="userSpaceOnUse">
      <stop offset="0" stop-color="#2dd4bf"/>
      <stop offset="1" stop-color="#0f766e"/>
    </linearGradient>
    <linearGradient id="route" x1="125" y1="330" x2="384" y2="160" gradientUnits="userSpaceOnUse">
      <stop offset="0" stop-color="#f97316"/>
      <stop offset="1" stop-color="#fbbf24"/>
    </linearGradient>
  </defs>
  <rect width="512" height="512" rx="112" fill="url(#bg)"/>
  <path d="M256 58c86.2 0 156 69.8 156 156 0 111.8-156 240-156 240S100 325.8 100 214C100 127.8 169.8 58 256 58Z" fill="url(#pin)"/>
  <circle cx="256" cy="207" r="58" fill="#ecfeff"/>
  <path d="M154 320c62-78 139-54 173-113 20-34-4-66-43-64-30 2-48 21-54 49" fill="none" stroke="url(#route)" stroke-width="34" stroke-linecap="round"/>
  <circle cx="154" cy="320" r="24" fill="#f97316"/>
  <circle cx="370" cy="142" r="24" fill="#fbbf24"/>
</svg>
